<svg width="1024" height="1024" viewBox="0 0 1024 1024" fill="none" xmlns="http://www.w3.org/2000/svg">
<g clip-path="url(#clip0_62_2)">
<path d="M0 0H1024V1024H0V0Z" fill="white"/>
<path d="M301.422 247.47C305.248 243.319 307.113 241.232 312.933 241.16C325.602 241.001 338.364 241.124 351.031 241.114L427.801 241.1L516.685 241.109C531.66 241.1 547.28 240.823 562.24 241.407C567.305 241.605 574.655 243.834 579.8 244.807C584.08 245.617 588.64 246.38 592.86 247.378C619.955 253.784 648.9 270.466 669.35 289.388C695.14 313.434 712.68 345.009 719.47 379.611C720.875 387.116 722.485 407.75 722.785 415.748C724.915 461.04 708.55 505.255 677.445 538.245C642.685 574.85 594.795 596.125 544.335 597.38C517.495 598.185 488.219 597.22 461.046 597.45C449.124 598.055 437.182 598.17 425.251 597.79C415.799 597.575 396.38 597.04 387.258 598.63C367.9 580.175 349.571 560.295 330.115 541.93C330.114 541.925 329.544 540.07 329.489 539.89C342.335 513.6 360.908 495.178 388.876 485.825C406.465 479.943 421.866 480.934 439.909 480.944L512.335 480.947C524.535 480.89 537.72 481.193 549.535 480.119C570.27 478.235 590.575 463.039 599.09 444.447C613.12 413.797 596.89 374.41 566.19 361.187C549.105 353.83 532.44 355.135 514.785 355.086L429.52 355.115C417.307 355.119 389.088 355.951 378.652 353.457C346.836 345.853 317.892 315.948 307.023 285.6C302.776 273.742 298.507 260.438 301.422 247.47Z" fill="#15C783"/>
<path d="M329.845 777.575C329.279 767.09 329.605 753.555 329.574 742.885L329.774 665.14L329.499 583.715C329.438 569.735 329.034 553.755 329.49 539.89C329.545 540.07 330.114 541.925 330.115 541.93C349.572 560.295 367.901 580.175 387.258 598.63C396.381 597.04 415.799 597.575 425.252 597.79C437.183 598.17 449.125 598.055 461.047 597.45C461.151 608.275 461.116 619.24 461.162 630.08C461.214 642.265 462.079 660.19 460.344 672.01C462.931 674.305 460.925 680.04 460.704 683.76C460.056 694.62 462.71 703.105 454.152 711.525C446.339 719.21 436.831 723.855 427.53 729.67C411.248 739.915 394.877 750.015 378.417 759.975C367.961 766.4 357.883 773.525 347.29 779.765C338.907 784.705 336.635 784.3 329.845 777.575Z" fill="#D7D7D6"/>
<path d="M387.258 598.63C396.38 597.04 415.799 597.575 425.251 597.79C437.182 598.17 449.124 598.055 461.046 597.45C461.15 608.275 461.115 619.24 461.161 630.08C461.213 642.265 462.078 660.19 460.344 672.01C457.896 671.62 455.099 667.675 453.307 665.765C448.762 660.935 444.164 656.16 439.513 651.435C422.914 634.53 402.871 615.945 387.258 598.63Z" fill="#338464"/>
</g>
<defs>
<clipPath id="clip0_62_2">
<rect width="1024" height="1024" rx="50" fill="white"/>
</clipPath>
</defs>
</svg>
